Coordinates
version=1
nRows=41
nColumns=38
inDegrees=no

Units are S.I. units (second, meters, Newtons, ...)
If the header above contains a line with 'inDegrees', this indicates whether rotational values are in degrees (yes) or radians (no).

endheader
time	pelvis_tilt	pelvis_list	pelvis_rotation	pelvis_tx	pelvis_ty	pelvis_tz	hip_flexion_r	hip_adduction_r	hip_rotation_r	knee_angle_r	ankle_angle_r	subtalar_angle_r	mtp_angle_r	hip_flexion_l	hip_adduction_l	hip_rotation_l	knee_angle_l	ankle_angle_l	subtalar_angle_l	mtp_angle_l	lumbar_extension	lumbar_bending	lumbar_rotation	arm_flex_r	arm_add_r	arm_rot_r	elbow_flex_r	pro_sup_r	wrist_flex_r	wrist_dev_r	arm_flex_l	arm_add_l	arm_rot_l	elbow_flex_l	pro_sup_l	wrist_flex_l	wrist_dev_l
0	0.0668689	1.22435	1.56724	0.704975	-0.721792	0.999961	0.700097	-0.0561163	-0.242974	0	-0.150317	0	0	0.063396	-0.0426642	-0.233453	0.196258	-0.0645691	0	0	0.260052	0.00875154	-0.133023	-0.0849494	-0.174598	0.263659	0.217914	1.5708	0	0	-0.0317124	-0.400934	0.311301	0.940629	1.35881	0	0
0.01	0.0659818	1.21684	1.5742	0.705595	-0.709526	0.997765	0.707224	-0.0573288	-0.207262	0	-0.157514	0	0	0.0658727	-0.0423775	-0.210417	0.210476	-0.0595356	0	0	0.267242	0.0119709	-0.134646	-0.086271	-0.175815	0.278928	0.210927	1.5708	0	0	-0.0247984	-0.399238	0.31263	0.94169	1.36504	0	0
0.02	0.0745563	1.21628	1.56991	0.706451	-0.695798	0.996294	0.70871	-0.0534956	-0.187235	0	-0.165315	0	0	0.0617971	-0.0468797	-0.203085	0.225072	-0.0584813	0	0	0.26877	0.0186072	-0.136371	-0.0883674	-0.177287	0.287614	0.206845	1.5708	0	0	-0.0222326	-0.396213	0.309946	0.942995	1.3716	0	0
0.03	0.0878666	1.21743	1.55919	0.707538	-0.681472	0.995164	0.709557	-0.0461469	-0.17451	0.0118143	-0.175896	0	0	0.0573572	-0.0544299	-0.201494	0.247893	-0.0581901	0	0	0.26963	0.0272626	-0.137212	-0.0907433	-0.178905	0.296153	0.202918	1.5708	0	0	-0.0223127	-0.391372	0.303819	0.943207	1.37968	0	0
0.04	0.102342	1.21914	1.54685	0.708728	-0.666667	0.994218	0.710207	-0.0371632	-0.165152	0.048513	-0.186423	0	0	0.0534242	-0.062947	-0.202167	0.274367	-0.0594902	0	0	0.271164	0.0362612	-0.137959	-0.0935936	-0.180432	0.305567	0.19825	1.5708	0	0	-0.0244213	-0.385676	0.296815	0.942178	1.38797	0	0
0.05	0.116926	1.21903	1.53464	0.709958	-0.651497	0.993326	0.71129	-0.0276076	-0.1572	0.0764083	-0.205989	0	0	0.0529309	-0.0716216	-0.201442	0.304285	-0.0630992	0	0	0.275966	0.0449832	-0.139243	-0.0974471	-0.181789	0.314504	0.193622	1.5708	0	0	-0.0288196	-0.37935	0.289415	0.939849	1.39519	0	0
0.06	0.131007	1.21544	1.52235	0.711275	-0.63618	0.992443	0.715181	-0.0181118	-0.149543	0.0950486	-0.239691	0	0	0.0571291	-0.0805222	-0.198026	0.330302	-0.0640878	0	0	0.285985	0.0536511	-0.140387	-0.102412	-0.183158	0.32351	0.189285	1.5708	0	0	-0.0354542	-0.371837	0.281059	0.935512	1.40187	0	0
0.07	0.142971	1.20896	1.51209	0.712663	-0.620887	0.991678	0.72177	-0.0102087	-0.142108	0.111242	-0.272327	0	0	0.0677509	-0.0887462	-0.18942	0.367819	-0.0714949	0	0	0.299898	0.061492	-0.140824	-0.108459	-0.184084	0.329325	0.185533	1.5708	0	0	-0.0424368	-0.364217	0.274882	0.928883	1.40603	0	0
0.08	0.155815	1.20122	1.50013	0.714278	-0.605627	0.991146	0.729269	-0.00237497	-0.134223	0.130113	-0.292942	0	0	0.082417	-0.0978105	-0.178332	0.410212	-0.0825387	0	0	0.315683	0.0696592	-0.139547	-0.115233	-0.184425	0.33182	0.182191	1.5708	0	0	-0.0491606	-0.356434	0.270788	0.920065	1.40794	0	0
0.09	0.17101	1.19298	1.48514	0.71616	-0.590396	0.990915	0.736876	0.00624698	-0.126657	0.155176	-0.291931	0	0	0.100516	-0.108313	-0.165216	0.457622	-0.098361	0	0	0.331873	0.0785914	-0.136851	-0.122316	-0.184179	0.331381	0.179663	1.5708	0	0	-0.0556836	-0.348585	0.268088	0.909817	1.40754	0	0
0.1	0.184085	1.18497	1.47048	0.718168	-0.575428	0.990981	0.745	0.0148478	-0.114977	0.187214	-0.273349	0	0	0.121626	-0.117887	-0.150725	0.509641	-0.119453	0	0	0.345686	0.0870107	-0.131892	-0.128323	-0.183699	0.329438	0.178643	1.5692	0	0	-0.0615225	-0.341438	0.266657	0.900319	1.40534	0	0
0.11	0.196462	1.1782	1.45533	0.720141	-0.560762	0.991374	0.752142	0.0237474	-0.097633	0.223982	-0.246344	0	0	0.14433	-0.126827	-0.134792	0.564689	-0.145876	0	0	0.355379	0.0956781	-0.125555	-0.132331	-0.183517	0.326809	0.179016	1.56641	0	0	-0.0670167	-0.334394	0.264937	0.892214	1.40055	0	0
0.12	0.207495	1.17251	1.43974	0.722089	-0.546585	0.991989	0.758272	0.0330811	-0.0810324	0.261565	-0.217537	0	0	0.16846	-0.134814	-0.118155	0.621806	-0.17669	0	0	0.360992	0.104524	-0.117202	-0.133774	-0.183639	0.324151	0.180514	1.56341	0	0	-0.071698	-0.327509	0.262711	0.885294	1.39502	0	0
0.13	0.219572	1.16799	1.42528	0.723918	-0.532623	0.992698	0.761413	0.0413194	-0.0713642	0.29496	-0.189733	0	0	0.194058	-0.142524	-0.0989698	0.681043	-0.209855	0	0	0.364158	0.112375	-0.110866	-0.133568	-0.183467	0.321335	0.18295	1.56052	0	0	-0.0767247	-0.321974	0.260718	0.880194	1.38849	0	0
0.14	0.234494	1.1667	1.4111	0.72558	-0.518826	0.993565	0.758426	0.0483146	-0.0699711	0.321111	-0.164532	0	0	0.218948	-0.150124	-0.0778043	0.742605	-0.243742	0	0	0.361946	0.11896	-0.107658	-0.131426	-0.183161	0.319485	0.187405	1.55904	0	0	-0.0818301	-0.318231	0.258562	0.877997	1.38001	0	0
0.15	0.253431	1.16789	1.39647	0.726936	-0.505198	0.994486	0.749356	0.0543796	-0.0762623	0.338765	-0.142644	0	0	0.243901	-0.157834	-0.0548232	0.805659	-0.277728	0	0	0.355578	0.12501	-0.107925	-0.127658	-0.183179	0.318018	0.193712	1.55841	0	0	-0.0867052	-0.315622	0.256655	0.877854	1.37086	0	0
0.16	0.277799	1.17056	1.37781	0.727751	-0.491919	0.995342	0.735692	0.0612431	-0.0892898	0.34948	-0.119449	0	0	0.269236	-0.165987	-0.0314127	0.869147	-0.316399	0	0	0.318219	0.128912	-0.147521	-0.0890737	-0.183486	0.34428	0.200061	1.5708	0	0	-0.134213	-0.312539	0.175481	0.932275	1.38464	0	0
0.17	0.296896	1.17276	1.36573	0.728568	-0.478813	0.996385	0.720351	0.0661979	-0.104276	0.354289	-0.107208	0	0	0.29659	-0.170582	-0.00701711	0.929041	-0.34665	0	0	0.308518	0.133864	-0.154207	-0.0806609	-0.184827	0.351251	0.209008	1.5708	0	0	-0.142565	-0.306347	0.161272	0.933715	1.38707	0	0
0.18	0.314961	1.17589	1.35679	0.729045	-0.46565	0.99761	0.702077	0.0694995	-0.119785	0.355742	-0.0948104	0	0	0.323326	-0.172943	0.0176579	0.984029	-0.37161	0	0	0.299183	0.137628	-0.161115	-0.0733241	-0.186378	0.354744	0.219312	1.5708	0	0	-0.148226	-0.301981	0.154858	0.931732	1.38497	0	0
0.19	0.329183	1.17942	1.35244	0.729426	-0.452565	0.999035	0.682897	0.0710721	-0.134437	0.356256	-0.0814688	0	0	0.349595	-0.172967	0.0400915	1.03379	-0.381911	0	0	0.290448	0.139734	-0.167838	-0.065807	-0.1877	0.356564	0.229572	1.5698	0	0	-0.152112	-0.298586	0.152534	0.926555	1.3815	0	0
0.2	0.340908	1.18399	1.34913	0.729974	-0.439567	1.00082	0.662062	0.0728186	-0.144171	0.355895	-0.0688371	0	0	0.37363	-0.172423	0.0571664	1.07777	-0.37363	0	0	0.281104	0.141099	-0.172105	-0.0580063	-0.188841	0.357427	0.239923	1.56812	0	0	-0.153596	-0.295694	0.15363	0.917712	1.37865	0	0
0.21	0.349455	1.18846	1.34741	0.730646	-0.426614	1.00293	0.640665	0.074654	-0.151245	0.352976	-0.0572016	0	0	0.396448	-0.170858	0.0699803	1.1169	-0.347888	0	0	0.27259	0.141681	-0.173944	-0.0506664	-0.190176	0.358163	0.251008	1.56716	0	0	-0.153143	-0.292884	0.157552	0.904968	1.37707	0	0
0.22	0.352567	1.19213	1.34848	0.731545	-0.413715	1.00524	0.619913	0.0764909	-0.154409	0.345959	-0.0505838	0	0	0.418816	-0.167736	0.0781078	1.15132	-0.313752	0	0	0.265883	0.140789	-0.172737	-0.0433554	-0.191156	0.359437	0.261277	1.56854	0	0	-0.152165	-0.290169	0.162955	0.889639	1.37658	0	0
0.23	0.351011	1.19532	1.35234	0.732526	-0.400846	1.0077	0.599904	0.0777702	-0.155066	0.337829	-0.0470868	0	0	0.440837	-0.162838	0.0825811	1.18059	-0.277048	0	0	0.260435	0.138744	-0.169435	-0.0355648	-0.191806	0.35859	0.270397	1.56994	0	0	-0.151178	-0.287259	0.168732	0.872627	1.37718	0	0
0.24	0.345312	1.19835	1.35931	0.733537	-0.388003	1.01025	0.580645	0.0779057	-0.155584	0.330645	-0.045014	0	0	0.462154	-0.156491	0.0842066	1.20421	-0.240909	0	0	0.255978	0.135107	-0.164834	-0.0277607	-0.192112	0.355389	0.279027	1.5708	0	0	-0.150605	-0.284671	0.17483	0.85512	1.37907	0	0
0.25	0.335926	1.20169	1.36895	0.734558	-0.375259	1.01291	0.561109	0.0770083	-0.156622	0.323613	-0.0438378	0	0	0.482364	-0.14919	0.0830422	1.22192	-0.207819	0	0	0.251661	0.129627	-0.159374	-0.0203435	-0.192474	0.350307	0.289513	1.5708	0	0	-0.150627	-0.282564	0.180614	0.838107	1.38158	0	0
0.26	0.323799	1.20511	1.38094	0.735519	-0.362601	1.01564	0.541171	0.0750615	-0.158965	0.31626	-0.0435203	0	0	0.501699	-0.141367	0.0797955	1.23371	-0.18106	0	0	0.247763	0.122809	-0.154239	-0.0128754	-0.193037	0.347247	0.300574	1.5708	0	0	-0.152153	-0.280625	0.184658	0.822246	1.38447	0	0
0.27	0.310611	1.20928	1.39368	0.736454	-0.350012	1.01847	0.519938	0.0725156	-0.160338	0.307646	-0.0445091	0	0	0.519288	-0.133702	0.0752358	1.23952	-0.157821	0	0	0.24343	0.115139	-0.148935	-0.00575741	-0.193851	0.34529	0.312486	1.5708	0	0	-0.154405	-0.27908	0.18784	0.806816	1.38826	0	0
0.28	0.297914	1.214	1.40608	0.737263	-0.337433	1.02134	0.497008	0.0698216	-0.163357	0.295888	-0.0473696	0	0	0.535308	-0.126473	0.0703655	1.23911	-0.138646	0	0	0.238841	0.107338	-0.144346	0.000907831	-0.195225	0.344598	0.325429	1.5708	0	0	-0.157473	-0.277688	0.190257	0.791715	1.39203	0	0
0.29	0.285907	1.21893	1.41799	0.737981	-0.324937	1.02419	0.473455	0.0671785	-0.170507	0.282955	-0.0520269	0	0	0.550295	-0.119774	0.0654809	1.23305	-0.121143	0	0	0.23424	0.0997011	-0.140612	0.00720593	-0.197182	0.344803	0.339624	1.5708	0	0	-0.161107	-0.276377	0.192147	0.77683	1.39506	0	0
0.3	0.272912	1.22416	1.4302	0.738837	-0.312724	1.02678	0.450308	0.0645502	-0.178246	0.27071	-0.0569515	0	0	0.564433	-0.113761	0.0599085	1.22277	-0.103162	0	0	0.235122	0.0868103	-0.122728	0.00654438	-0.196479	0.33626	0.348572	1.5708	0	0	-0.15953	-0.277725	0.203658	0.762461	1.39708	0	0
0.31	0.260453	1.22763	1.44146	0.739491	-0.300517	1.02943	0.428684	0.0621956	-0.186158	0.256654	-0.0636861	0	0	0.578954	-0.108362	0.0538091	1.20658	-0.086579	0	0	0.231158	0.0783966	-0.11565	0.0111181	-0.197887	0.328202	0.364175	1.5708	0	0	-0.16278	-0.278414	0.209222	0.750843	1.39402	0	0
0.32	0.246798	1.22957	1.45242	0.740206	-0.288269	1.03188	0.408964	0.0600171	-0.192153	0.243823	-0.0714007	0	0	0.593634	-0.10407	0.0450553	1.18554	-0.0717354	0	0	0.228705	0.0702423	-0.109037	0.015925	-0.199669	0.323489	0.379884	1.5708	0	0	-0.168105	-0.278247	0.211369	0.739822	1.38967	0	0
0.33	0.234798	1.23118	1.46207	0.740859	-0.276075	1.03414	0.389458	0.0582792	-0.198846	0.231543	-0.0792857	0	0	0.607462	-0.100378	0.0366282	1.15996	-0.0590629	0	0	0.226779	0.06274	-0.103692	0.0204283	-0.201525	0.319065	0.395887	1.5708	0	0	-0.174164	-0.277493	0.211977	0.728758	1.38398	0	0
0.34	0.223986	1.23241	1.47067	0.741441	-0.263969	1.03622	0.370483	0.0567867	-0.205402	0.219468	-0.0875396	0	0	0.620394	-0.0972013	0.0280822	1.12947	-0.0480807	0	0	0.225004	0.0558052	-0.0988792	0.024898	-0.203302	0.313053	0.412038	1.5708	0	0	-0.179798	-0.276081	0.212363	0.716921	1.37582	0	0
0.35	0.214197	1.23317	1.47838	0.741971	-0.25191	1.03813	0.352098	0.0554364	-0.212174	0.207676	-0.0960599	0	0	0.632471	-0.0946502	0.0188917	1.09392	-0.0385186	0	0	0.223615	0.0492984	-0.0941738	0.0290081	-0.20494	0.305399	0.428294	1.5708	0	0	-0.184659	-0.274201	0.212922	0.703942	1.36619	0	0
0.36	0.205056	1.23308	1.48513	0.742492	-0.239808	1.03981	0.33432	0.0544767	-0.218564	0.195478	-0.104673	0	0	0.643881	-0.0928293	0.00833352	1.05355	-0.0307514	0	0	0.223482	0.043232	-0.0893077	0.0320898	-0.206575	0.296547	0.445117	1.5708	0	0	-0.189219	-0.272417	0.214603	0.689916	1.3571	0	0
0.37	0.194648	1.23154	1.49086	0.743126	-0.227595	1.04114	0.317808	0.0540897	-0.221552	0.182588	-0.113387	0	0	0.654644	-0.0922743	-0.0054811	1.00812	-0.024998	0	0	0.225582	0.0373849	-0.0823296	0.0336198	-0.208301	0.286578	0.462791	1.5708	0	0	-0.194217	-0.270467	0.217077	0.675443	1.34725	0	0
0.38	0.18244	1.22835	1.49605	0.743843	-0.215337	1.04212	0.303241	0.0538413	-0.220506	0.169949	-0.12276	0	0	0.665157	-0.0929123	-0.0233004	0.95788	-0.0222864	0	0	0.230019	0.0318118	-0.0721715	0.0328667	-0.210058	0.272575	0.482207	1.5708	0	0	-0.198255	-0.268762	0.223085	0.659717	1.33594	0	0
0.39	0.173072	1.22722	1.50141	0.74429	-0.203119	1.04299	0.286367	0.0531552	-0.223576	0.15715	-0.130741	0	0	0.672665	-0.0920721	-0.0383798	0.903529	-0.0236985	0	0	0.231624	0.0264669	-0.0648963	0.0327581	-0.211528	0.258091	0.501321	1.5708	0	0	-0.201065	-0.267662	0.230981	0.644169	1.32434	0	0
0.4	0.16608	1.22794	1.50582	0.744619	-0.190919	1.04371	0.267726	0.0526572	-0.228662	0.14502	-0.137776	0	0	0.677039	-0.0907551	-0.0524824	0.845289	-0.0289851	0	0	0.230348	0.0215037	-0.0593869	0.033198	-0.212805	0.243233	0.520874	1.5708	0	0	-0.203151	-0.267156	0.240262	0.62943	1.31237	0	0
